<?xml version="1.0" encoding="utf-8"?>
<svg version="1.1" id="Layer_1" xmlns="http://www.w3.org/2000/svg" xmlns:xlink="http://www.w3.org/1999/xlink" x="0px" y="0px"
	 viewBox="0 0 398.5 398.5" style="enable-background:new 0 0 398.5 398.5;" xml:space="preserve" fill="#FFFFFF">
<path d="M67.6,175.6c0-4.4-3.6-8-8-8h-28c-4.4,0-8,3.6-8,8s3.6,8,8,8h28C64,183.6,67.6,180,67.6,175.6z"/>
<path d="M366.9,167.6h-28c-4.4,0-8,3.6-8,8s3.6,8,8,8h28c4.4,0,8-3.6,8-8S371.3,167.6,366.9,167.6z"/>
<path d="M82.3,98.9l-24.2-14c-3.8-2.2-8.7-0.9-10.9,2.9c-2.2,3.8-0.9,8.7,2.9,10.9l24.2,14c1.3,0.7,2.6,1.1,4,1.1
	c2.8,0,5.5-1.4,6.9-4C87.4,106,86.1,101.1,82.3,98.9z"/>
<path d="M348.4,252.5l-24.2-14c-3.8-2.2-8.7-0.9-10.9,2.9c-2.2,3.8-0.9,8.7,2.9,10.9l24.2,14c1.3,0.7,2.6,1.1,4,1.1
	c2.8,0,5.5-1.4,6.9-4C353.5,259.6,352.2,254.7,348.4,252.5z"/>
<path d="M122.5,58.7c1.5,2.6,4.2,4,6.9,4c1.4,0,2.7-0.3,4-1.1c3.8-2.2,5.1-7.1,2.9-10.9l-14-24.2c-2.2-3.8-7.1-5.1-10.9-2.9
	c-3.8,2.2-5.1,7.1-2.9,10.9L122.5,58.7z"/>
<path d="M199.3,44c4.4,0,8-3.6,8-8V8c0-4.4-3.6-8-8-8s-8,3.6-8,8v28C191.3,40.4,194.8,44,199.3,44z"/>
<path d="M265.1,61.6c1.3,0.7,2.6,1.1,4,1.1c2.8,0,5.5-1.4,6.9-4l14-24.2c2.2-3.8,0.9-8.7-2.9-10.9c-3.8-2.2-8.7-0.9-10.9,2.9
	l-14,24.2C259.9,54.5,261.2,59.4,265.1,61.6z"/>
<path d="M320.2,113.8c1.4,0,2.7-0.3,4-1.1l24.2-14c3.8-2.2,5.1-7.1,2.9-10.9c-2.2-3.8-7.1-5.1-10.9-2.9l-24.2,14
	c-3.8,2.2-5.1,7.1-2.9,10.9C314.7,112.4,317.4,113.8,320.2,113.8z"/>
<path d="M74.3,238.5l-24.2,14c-3.8,2.2-5.1,7.1-2.9,10.9c1.5,2.6,4.2,4,6.9,4c1.4,0,2.7-0.3,4-1.1l24.2-14c3.8-2.2,5.1-7.1,2.9-10.9
	C83,237.6,78.1,236.3,74.3,238.5z"/>
<path d="M199.3,67.4c-0.5,0-1,0-1.6,0c-59.4,0.8-107.6,49.9-107.5,109.3c0,17.2,4,33.6,11.7,48.8c18.5,36.5,27.1,66.2,27.1,93.4v2
	c0,0.8,0.1,1.6,0.3,2.3c0,0,0,0,0,0v0c0,0,0,0,0,0.1l11,36.3c1,3.4,4.1,5.7,7.7,5.7h10.2l8.2,27.4c1,3.4,4.1,5.7,7.7,5.7h50.1
	c3.5,0,6.7-2.3,7.7-5.7l8.2-27.4h10.2c3.5,0,6.6-2.3,7.7-5.7l11-36.3c0,0,0,0,0-0.1v0c0,0,0,0,0,0c0.2-0.7,0.3-1.5,0.3-2.3v-2.5
	c0-32.5,13.4-64.7,27.9-94.5c7.2-14.9,10.9-30.9,10.9-47.6C308.3,116.3,259.4,67.4,199.3,67.4z M218.4,382.5h-38.2l-5.1-17.1h48.4
	L218.4,382.5z M244.5,349.4H154l-6.2-20.4h102.8L244.5,349.4z M283,216.9c-14.5,30-28.1,62.3-29.4,96h-1.7h-10.7h-16h-51.9h-16h-11
	h-1.3c-1.1-28.1-10.3-58.3-28.7-94.6c-6.6-13-9.9-27-10-41.7c-0.2-50.7,41-92.6,91.7-93.3c51.9-0.7,94.3,41.3,94.3,93
	C292.3,190.6,289.1,204.3,283,216.9z"/>
</svg>
