<?xml version="1.0" encoding="utf-8"?>
<!-- Generator: Adobe Illustrator 24.0.1, SVG Export Plug-In . SVG Version: 6.00 Build 0)  -->
<svg version="1.1" id="Layer_1" xmlns="http://www.w3.org/2000/svg" xmlns:xlink="http://www.w3.org/1999/xlink" x="0px" y="0px"
	 viewBox="0 0 398.5 398.5" enable-background="new 0 0 398.5 398.5" xml:space="preserve">
<g>
	<path fill="#FFFFFF" d="M370,165.8h-34.1c-5.4,0-9.8,4.4-9.8,9.8c0,5.4,4.4,9.8,9.8,9.8H370c5.4,0,9.8-4.4,9.8-9.8
		C379.7,170.2,375.3,165.8,370,165.8z"/>
	<path fill="#FFFFFF" d="M353.3,252.5l-31.5-18.2c-4.9-2.9-11.3-1.2-14.2,3.8s-1.2,11.3,3.8,14.2l31.5,18.2c1.7,0.9,3.4,1.4,5.2,1.4
		c3.6,0,7.2-1.8,9-5.2C359.9,261.8,358.2,255.4,353.3,252.5z"/>
	<path fill="#FFFFFF" d="M122.5,62.7c1.9,3.2,5.2,5,8.6,5c1.7,0,3.4-0.4,5-1.4c4.7-2.7,6.4-8.9,3.6-13.6l-17.5-30.2
		c-2.7-4.7-8.9-6.4-13.6-3.6c-4.7,2.7-6.4,8.9-3.6,13.6L122.5,62.7z"/>
	<path fill="#FFFFFF" d="M199.3,57.8c5.8,0,10.5-4.7,10.5-10.5V10.5c0-5.8-4.7-10.5-10.5-10.5s-10.5,4.7-10.5,10.5v36.8
		C188.8,53.1,193.4,57.8,199.3,57.8z"/>
	<path fill="#FFFFFF" d="M262.4,66.3c1.6,0.9,3.2,1.4,5,1.4c3.5,0,6.9-1.7,8.6-5l17.5-30.2c2.7-4.7,1.1-10.9-3.6-13.6
		s-10.9-1.1-13.6,3.6l-17.5,30.2C255.9,57.5,257.5,63.6,262.4,66.3z"/>
	<path fill="#FFFFFF" d="M315.8,119.2c1.9,0,3.7-0.4,5.4-1.5l32.9-19.1c5.2-3,6.9-9.7,3.9-14.8c-3-5.2-9.7-6.9-14.8-3.9l-32.9,19.1
		c-5.2,3-6.9,9.7-3.9,14.8C308.3,117.3,312,119.2,315.8,119.2z"/>
	<path fill="#FFFFFF" d="M76.3,235.1l-30.2,17.4c-4.7,2.7-6.4,8.8-3.6,13.6c1.9,3.2,5.2,5,8.6,5c1.7,0,3.4-0.4,5-1.4l30.2-17.4
		c4.7-2.7,6.4-8.8,3.6-13.6C87.1,234,81,232.3,76.3,235.1z"/>
	<path fill="#FFFFFF" d="M73,180.4c0-5.5-4.5-9.9-9.9-9.9l-34.8,0c-5.5,0-9.9,4.5-9.9,9.9c0,3.7,2,6.9,4.9,8.6
		c1.5,0.9,3.1,1.4,5,1.3l34.8,0C68.5,190.3,73,185.9,73,180.4z"/>
	<path fill="#FFFFFF" d="M46.3,97.1l30.5,17.4c4.8,2.7,10.9,1.1,13.6-3.7c2.7-4.8,1-10.9-3.8-13.7L56,79.7
		c-4.8-2.7-10.9-1.1-13.6,3.7c-1.8,3.3-1.6,7.1,0.1,10C43.4,95,44.6,96.2,46.3,97.1z"/>
	<path fill="#FFFFFF" d="M199.3,67.4c-0.5,0-1,0-1.6,0c-59.4,0.8-107.6,49.9-107.5,109.3c0,17.2,4,33.6,11.7,48.8
		c18.5,36.5,27.1,66.2,27.1,93.4v2c0,0.8,0.1,1.6,0.3,2.3c0,0,0,0,0,0.1l11,36.3c1,3.4,4.1,5.7,7.7,5.7h10.2l8.2,27.4
		c1,3.4,4.1,5.7,7.7,5.7h50.1c3.5,0,6.7-2.3,7.7-5.7l8.2-27.4h10.2c3.5,0,6.6-2.3,7.7-5.7l11-36.3c0,0,0,0,0-0.1
		c0.2-0.7,0.3-1.5,0.3-2.3v-2.5c0-32.5,13.4-64.7,27.9-94.5c7.2-14.9,10.9-30.9,10.9-47.6C308.3,116.3,259.4,67.4,199.3,67.4z
		 M219.2,365.4l-3.1,11.1h-33.7l-3.1-11.1H219.2z M243.5,329l-4.4,15.8h-79.9l-4.4-15.8H243.5z M222.1,309.8h-45.8h-14.1h-9.7h-1.1
		c-1-26.9-9.1-55.9-25.3-90.7c-5.8-12.5-8.7-25.9-8.8-40c-0.2-48.6,36.2-88.8,80.9-89.4c45.8-0.7,83.2,39.6,83.2,89.1
		c0,13.7-2.8,26.8-8.2,38.9c-12.8,28.8-24.8,59.7-26,92h-1.5h-9.4H222.1z"/>
</g>
</svg>
