<?xml version="1.0" encoding="iso-8859-1"?>
<svg version="1.1" id="Capa_1" xmlns="http://www.w3.org/2000/svg" xmlns:xlink="http://www.w3.org/1999/xlink" x="0px" y="0px"
	 viewBox="0 0 330 330" style="enable-background:new 0 0 330 330;" xml:space="preserve" fill="#FFFFFF">
<path d="M295,35h-45V15c0-8.284-6.716-15-15-15H35c-8.284,0-15,6.716-15,15v70c0,8.284,6.716,15,15,15h200c8.284,0,15-6.716,15-15
	V65h30v47.551l-147.764,27.706C125.141,141.587,120,147.782,120,155v45h-15c-8.284,0-15,6.716-15,15v100c0,8.284,6.716,15,15,15h60
	c8.284,0,15-6.716,15-15V215c0-8.284-6.716-15-15-15h-15v-32.551l147.764-27.706C304.859,138.413,310,132.218,310,125V50
	C310,41.716,303.284,35,295,35z M220,70H50V30h170V70z M150,300h-30v-70h30V300z"/>
<g>
</g>
<g>
</g>
<g>
</g>
<g>
</g>
<g>
</g>
<g>
</g>
<g>
</g>
<g>
</g>
<g>
</g>
<g>
</g>
<g>
</g>
<g>
</g>
<g>
</g>
<g>
</g>
<g>
</g>
</svg>
