<?xml version="1.0" encoding="utf-8"?>
<!-- Generator: Adobe Illustrator 24.0.1, SVG Export Plug-In . SVG Version: 6.00 Build 0)  -->
<svg version="1.1" id="Слой_1" xmlns="http://www.w3.org/2000/svg" xmlns:xlink="http://www.w3.org/1999/xlink" x="0px" y="0px"
	 viewBox="0 0 285.8 285.8" enable-background="new 0 0 285.8 285.8" xml:space="preserve">
<path fill="#FFFFFF" d="M279.5,132.1L147.7,29.4c-2.8-2.2-6.8-2.2-9.7,0L94.9,63c-5.2,4-12.7,0.3-12.7-6.2v-1c0-4.4-3.5-7.9-7.9-7.9
	H60.1c-4.4,0-7.9,3.5-7.9,7.9v36.6c0,2.4-1.1,4.7-3,6.2l-43,33.4c-3.4,2.7-4.1,7.6-1.4,11.1l8.7,11.2c2.7,3.4,7.6,4.1,11.1,1.4
	c5.2-4,12.7-0.3,12.7,6.2v90.2c0,4.4,3.5,7.9,7.9,7.9h195.2c4.4,0,7.9-3.5,7.9-7.9V162c0-6.6,7.6-10.3,12.7-6.2l0,0
	c3.4,2.7,8.4,2.1,11.1-1.4l8.7-11.2C283.6,139.7,283,134.8,279.5,132.1z M128.4,174.3h27.2v55.8h-27.2V174.3z M218.4,222.2
	c0,4.4-3.5,7.9-7.9,7.9h-31.2v-67.6v0c0-6.6-5.3-11.9-11.9-11.9h-50.9c-6.6,0-11.9,5.3-11.9,11.9v0v67.6H75.3
	c-4.4,0-7.9-3.5-7.9-7.9v-95.9c0-2.4,1.1-4.7,3-6.2L138,67.5c2.8-2.2,6.8-2.2,9.7,0l67.6,52.6c1.9,1.5,3,3.8,3,6.2V222.2z"/>
</svg>
