<?xml version="1.0" encoding="utf-8"?>
<!-- Generator: Adobe Illustrator 24.0.1, SVG Export Plug-In . SVG Version: 6.00 Build 0)  -->
<svg version="1.1" id="Layer_1" xmlns="http://www.w3.org/2000/svg" xmlns:xlink="http://www.w3.org/1999/xlink" x="0px" y="0px"
	 viewBox="0 0 294.9 294.9" style="enable-background:new 0 0 294.9 294.9;" xml:space="preserve">
<path d="M207.7,75.1c20.3-25.9,2.5-56.8-30.1-52.2c-12.3-30.5-47.9-30.5-60.3,0c-32.6-4.6-50.4,26.3-30.1,52.2
	c-20.3,25.9-2.5,56.8,30.1,52.2c4.5,11.1,12.8,19.1,22.6,21.9v43.1H95.3c-4.4,0-7.9,3.8-7.5,8.2l2.8,29.4c0,0,0,0,0,0l5.5,58.1
	c0.4,3.9,3.6,6.8,7.5,6.8h87.6c3.9,0,7.1-2.9,7.5-6.8l5.5-58.1c0,0,0,0,0,0l2.8-29.4c0.4-4.4-3-8.2-7.5-8.2H155v-15.6l32.7-15.3
	c3.8-1.8,5.4-6.2,3.6-10s-6.2-5.4-10-3.6L155,160.1v-10.9c9.8-2.8,18.2-10.8,22.6-21.9C210.2,131.9,228,101.1,207.7,75.1z
	 M110.5,279.9l-4.1-43.2h82.2l-4.1,43.2H110.5z M190,221.7h-85l-1.4-14.4h87.8L190,221.7z M199.5,105.2c-4,6.9-14.2,9.4-24.8,6.2
	c-4.2-1.3-8.6,1.3-9.5,5.5c-2.5,10.8-9.8,18.4-17.7,18.4s-15.3-7.6-17.7-18.4c-1-4.3-5.4-6.8-9.5-5.5c-10.6,3.3-20.8,0.7-24.8-6.2
	s-1.1-17,7.1-24.6c3.2-3,3.2-8,0-11C94.3,62,91.4,51.9,95.4,45c4-6.9,14.2-9.4,24.8-6.2c4.2,1.3,8.6-1.2,9.5-5.5
	c2.5-10.8,9.8-18.4,17.7-18.4c8,0,15.3,7.6,17.7,18.4c1,4.3,5.4,6.8,9.5,5.5c10.6-3.3,20.8-0.7,24.8,6.2c4,6.9,1.1,17-7.1,24.6
	c-3.2,3-3.2,8,0,11C200.6,88.2,203.5,98.3,199.5,105.2z"/>
<path d="M147.4,41.5c-18.5,0-33.6,15.1-33.6,33.6s15.1,33.6,33.6,33.6s33.6-15.1,33.6-33.6S166,41.5,147.4,41.5z M147.4,93.7
	c-10.3,0-18.6-8.4-18.6-18.6s8.4-18.6,18.6-18.6c10.3,0,18.6,8.4,18.6,18.6C166.1,85.4,157.7,93.7,147.4,93.7z"/>
</svg>
