<?xml version="1.0" encoding="utf-8"?>
<!-- Generator: Adobe Illustrator 24.0.1, SVG Export Plug-In . SVG Version: 6.00 Build 0)  -->
<svg version="1.1" id="Слой_1" xmlns="http://www.w3.org/2000/svg" xmlns:xlink="http://www.w3.org/1999/xlink" x="0px" y="0px"
	 viewBox="0 0 400 400" enable-background="new 0 0 400 400" xml:space="preserve">
<g>
	<path fill="#FFFFFF" d="M241.8,33.3c-17.1-39-66.6-39-83.8,0c-45.3-5.9-70.1,33.7-41.8,66.8c-22.8,26.8-11,57.8,18.3,65.6
		c6.9,4,15.6,6,25.5,5.2c3.6,6.7,8.4,12.3,14,16.6c4.5,4.7,9.7,8.2,15.5,10.2v52.6h-62c-6.1,0-11,4.9-10.4,10.5l3.9,37.6l7.6,74.4
		c0.6,5,5,8.7,10.4,8.7h7.7h106.7h7.4c5.4,0,9.9-3.7,10.4-8.7l7.6-74.4l3.9-37.6c0.6-5.6-4.2-10.5-10.4-10.5h-61.9v-18.1l35.9-17.4
		l9.5-4.1c5.3-2.3,7.5-7.9,5-12.8c-2.5-4.9-8.6-6.9-13.9-4.6l-36.6,15.7v-11.3c6.1-2,11.7-5.8,16.4-11c5.3-4.2,9.7-9.6,13.1-15.9
		c10.1,0.9,18.9-1.2,26-5.3c28.9-8,40.4-38.7,17.8-65.4C311.9,66.9,287.2,27.4,241.8,33.3z M237.8,146.6c-5.1-1.5-10.5,0.9-12.5,5.2
		c-1.8,1.3-3.1,3.3-3.6,5.6c-0.8,3.7-2.1,7-3.7,10c-4.8,6.1-11.2,9.8-18,9.8c-6.4,0-12.6-3.3-17.3-8.9c-1.8-3.2-3.2-6.9-4.1-11
		c-0.6-2.6-2.1-4.6-4-5.9c-2.2-4.1-7.4-6.3-12.3-4.9c-7.7,2.2-15.1,2.3-21.4,0.7c-1.6-1.3-3-2.9-4-4.7c-4.9-8.7-1.3-21.4,8.6-31
		c3.9-3.8,3.9-10.1,0-13.9c-10.1-9.6-13.6-22.3-8.8-31c4.9-8.7,17.3-11.8,30.2-7.8c5.1,1.6,10.5-1.5,11.6-6.9
		c3-13.6,11.9-23.2,21.5-23.2c9.7,0,18.6,9.6,21.5,23.2c1.2,5.4,6.6,8.6,11.6,6.9c12.9-4.2,25.3-0.9,30.2,7.8
		c4.9,8.7,1.3,21.4-8.6,31c-3.9,3.8-3.9,10.1,0,13.9c10.1,9.6,13.6,22.3,8.8,31c-1,1.7-2.3,3.3-3.8,4.5
		C253.3,148.8,245.6,148.8,237.8,146.6z M245.2,362.3H155l-5-54.1h100.1L245.2,362.3z M148.2,287.8l-1.6-16.6h106.9l-1.6,16.6H148.2
		z"/>
	<path fill="#FFFFFF" d="M199.9,57.1c-27.3,0-49.5,19.3-49.5,43s22.2,43,49.5,43s49.5-19.3,49.5-43S227.3,57.1,199.9,57.1z
		 M177.4,101.6c0-12.4,10.2-22.6,22.6-22.6c12.5,0,22.6,10.2,22.6,22.6c0.1,10.1-6.5,18.5-15.5,21.5c-2.3,0.5-4.8,0.8-7.3,0.8
		c-2.1,0-4.2-0.2-6.2-0.6C184.2,120.5,177.4,111.8,177.4,101.6z"/>
</g>
</svg>
