<!-- Generated by IcoMoon.io -->
<svg version="1.1" xmlns="http://www.w3.org/2000/svg" width="512" height="512" viewBox="0 0 512 512">
<title></title>
<g id="icomoon-ignore">
</g>
<path d="M381.844 245.406c1.187-6.968 2.156-14.062 2.156-21.406v-96c0-70.688-57.312-128-128-128s-128 57.312-128 128v96c0 7.344 0.969 14.438 2.156 21.406-77.437 27.5-130.156 78.969-130.156 138.594v96c0 17.688 14.312 32 32 32h448c17.688 0 32-14.312 32-32v-96c0-59.625-52.719-111.094-130.156-138.594zM192 128c0-35.344 28.656-64 64-64s64 28.656 64 64v96c0 35.344-28.656 64-64 64s-64-28.656-64-64v-96zM448 448h-384v-64c0-34.562 36.812-64.594 91.594-81.5 23.437 29.938 59.468 49.5 100.406 49.5s76.969-19.562 100.406-49.5c54.782 16.906 91.594 46.938 91.594 81.5v64z"></path>
</svg>
